<svg xmlns="http://www.w3.org/2000/svg" viewBox="0 0 392.96 343"><defs><style>.cls-1{fill:#fff;}</style></defs><title>write</title><g id="Calque_2" data-name="Calque 2"><g id="Calque_1-2" data-name="Calque 1"><rect class="cls-1" x="29.85" y="37" width="190.32" height="22" rx="11" ry="11"/><rect class="cls-1" x="29.85" y="90" width="190.32" height="22" rx="11" ry="11"/><rect class="cls-1" x="29.85" y="143" width="190.32" height="22" rx="11" ry="11"/><rect class="cls-1" x="29.85" y="196" width="190.32" height="22" rx="11" ry="11"/><rect class="cls-1" x="29.85" y="249" width="111.95" height="22" rx="11" ry="11"/><polygon class="cls-1" points="249.39 267.31 256 257.33 256 163.16 244.06 181.19 244.06 271.08 249.39 267.31"/><path class="cls-1" d="M250.37,270.49l-6.31,4.23V315c0,6.6-4,12-9,12H20.9c-4.93,0-9-5.4-9-12V28c0-6.6,4-12,9-12H235.1c4.93,0,9,5.4,9,12V176.54l11.94-18V12c0-6.6-4-12-9-12H9C4,0,0,5.4,0,12V331c0,6.6,4,12,9,12H247c4.93,0,9-5.4,9-12V262Z"/><polyline class="cls-1" points="392.96 50.54 349.61 21.83 206.04 238.6 190.72 308.81 249.39 267.31"/></g></g></svg>