<svg xmlns="http://www.w3.org/2000/svg" viewBox="0 0 68.54 56.92"><defs><style>.cls-1{fill:#fff;}</style></defs><title>logo_black_whitesvg</title><g id="Calque_2" data-name="Calque 2"><g id="Calque_1-2" data-name="Calque 1"><path d="M53,13.39c-50-21-61,27-17,35-5,9-16,8-16,8C32,28.39,18,19.39,53,13.39Z"/><path class="cls-1" d="M53,13.39c-.93-.35-1.86-.69-2.77-1s-1.78-.66-2.73-.91c-1.87-.55-3.72-1.13-5.62-1.5s-3.81-.71-5.71-1-3.84-.33-5.76-.3a28.48,28.48,0,0,0-11.21,2,19.77,19.77,0,0,0-4.87,2.89l-1,1L12.8,15l-.45.55c-.28.37-.59.73-.87,1.11l-.72,1.21a13.78,13.78,0,0,0-1.67,5.34A16.47,16.47,0,0,0,9,26c.06.47.14.93.21,1.4l.1.7.2.68a20.61,20.61,0,0,0,5.9,9.57A33,33,0,0,0,25,44.61,55.09,55.09,0,0,0,36.09,47.9l.71.14-.36.6a15.61,15.61,0,0,1-3,3.8,14.69,14.69,0,0,1-4,2.68,19.16,19.16,0,0,1-4.61,1.45,20.42,20.42,0,0,1-4.83.32l-.69,0,.28-.65a81.2,81.2,0,0,0,4.6-14.34c.55-2.45,1-4.94,1.41-7.43A51.47,51.47,0,0,1,27.24,27a14.56,14.56,0,0,1,4.18-6.53,21,21,0,0,1,6.76-3.69,54.1,54.1,0,0,1,7.35-2c1.23-.27,2.48-.49,3.72-.72S51.71,13.63,53,13.39Zm0,0c-1.2.23-2.47.51-3.71.78s-2.47.56-3.68.9a54.19,54.19,0,0,0-7.18,2.33,21.43,21.43,0,0,0-6.33,3.8,13.24,13.24,0,0,0-3.91,6.09,50.36,50.36,0,0,0-1.65,7.31c-.44,2.49-.87,5-1.43,7.48a81.21,81.21,0,0,1-4.65,14.51l-.41-.69a20,20,0,0,0,4.55-.31A19,19,0,0,0,29,54.22a14.31,14.31,0,0,0,3.78-2.51,14.72,14.72,0,0,0,2.81-3.56l.35.74a56.18,56.18,0,0,1-11.27-3.36,34.25,34.25,0,0,1-9.89-6.41,21.71,21.71,0,0,1-6.18-10l-.2-.73-.12-.74c-.07-.49-.16-1-.22-1.49a17.67,17.67,0,0,1,.07-3,14.56,14.56,0,0,1,1.79-5.71l.77-1.3c.29-.4.62-.79.93-1.18l.47-.59.54-.52,1.09-1a20.56,20.56,0,0,1,5.12-3,30.17,30.17,0,0,1,11.6-2.09,39.86,39.86,0,0,1,5.87.5c1.92.4,3.86.71,5.73,1.29s3.73,1.13,5.57,1.77c.92.29,1.85.71,2.75,1.09S52.12,13.05,53,13.39Z"/><line x1="15" y1="38.39" x2="15" y2="47.89"/><polygon class="cls-1" points="15.5 38.39 15 47.89 14.5 38.39 15.5 38.39"/><line x1="10" y1="31.39" x2="6" y2="43.39"/><polygon class="cls-1" points="10.47 31.55 6 43.39 9.53 31.23 10.47 31.55"/><line x1="8.68" y1="22.64" y2="32.39"/><polygon class="cls-1" points="9.06 22.97 0 32.39 8.31 22.3 9.06 22.97"/><line x1="25.73" y1="37.16" x2="33" y2="37.39"/><polygon class="cls-1" points="25.74 36.66 33 37.39 25.71 37.66 25.74 36.66"/><line x1="26.56" y1="32.38" x2="33" y2="35.39"/><polygon class="cls-1" points="26.77 31.93 33 35.39 26.35 32.83 26.77 31.93"/><line x1="27.43" y1="28.59" x2="33" y2="32.39"/><polygon class="cls-1" points="27.72 28.18 33 32.39 27.15 29 27.72 28.18"/><path class="cls-1" d="M54,21.39c-.87.57-1.77,1.12-2.69,1.64l-1.43.67a11.49,11.49,0,0,1-1.46.6,22.75,22.75,0,0,1-6.2,1.39,20.48,20.48,0,0,1-6.34-.57,19.67,19.67,0,0,1-3-1,14.5,14.5,0,0,1-2.71-1.62A21.44,21.44,0,0,0,36,24.37a26.07,26.07,0,0,0,6.11.32,25.94,25.94,0,0,0,3-.41c.5-.1,1-.17,1.51-.3l1.49-.4c1-.23,1.94-.67,2.93-1S53,21.77,54,21.39Z"/><path class="cls-1" d="M13.2,13.89a3.4,3.4,0,0,1-1-1.53,2.85,2.85,0,0,1,.22-1.88A7.54,7.54,0,0,1,15,7.78a24.39,24.39,0,0,1,6.64-3.06,37.09,37.09,0,0,1,7.14-1.46A26.27,26.27,0,0,1,36,3.39a33.13,33.13,0,0,0-3.6.17c-1.19.1-2.37.25-3.55.46a56.91,56.91,0,0,0-6.94,1.65,30.82,30.82,0,0,0-6.53,2.75,7.11,7.11,0,0,0-2.54,2.29,2.49,2.49,0,0,0-.39,1.6A3.72,3.72,0,0,0,13.2,13.89Z"/><path d="M52,3.39c0-1.65-3.58-3-8-3s-8,1.35-8,3,3.58,3,8,3C47,4.39,52,3.39,52,3.39Z"/><path class="cls-1" d="M52,3.39A1.89,1.89,0,0,0,51,2.1a6.28,6.28,0,0,0-1.52-.67,16.58,16.58,0,0,0-3.29-.6,20.69,20.69,0,0,0-3.34,0,17.94,17.94,0,0,0-3.28.52,6.42,6.42,0,0,0-2.78,1.36.83.83,0,0,0-.25,1,2.49,2.49,0,0,0,1,.93A15.48,15.48,0,0,0,44,6l-.21.06a18.1,18.1,0,0,1,4-1.74A29.4,29.4,0,0,1,52,3.39Zm0,0a42,42,0,0,0-4,1.39A18.58,18.58,0,0,0,44.21,6.7l-.09.06H44a17.55,17.55,0,0,1-3.47-.22,10.57,10.57,0,0,1-3.39-1,3.37,3.37,0,0,1-1.45-1.34A1.79,1.79,0,0,1,35.55,3a2.15,2.15,0,0,1,.56-.94A7.06,7.06,0,0,1,39.38.45,19.2,19.2,0,0,1,46.3.2a13.33,13.33,0,0,1,3.35.87,6.69,6.69,0,0,1,1.52.86A1.9,1.9,0,0,1,52,3.39Z"/><path d="M68.43,15.44c.62,1.54-2.22,4.11-6.32,5.74s-7.93,1.71-8.54.17,2.22-4.11,6.32-5.74C63.42,16.36,68.43,15.44,68.43,15.44Z"/><path class="cls-1" d="M68.43,15.44a1.88,1.88,0,0,1-.23,1.67,7.07,7.07,0,0,1-1.09,1.36,13.6,13.6,0,0,1-2.79,2,19,19,0,0,1-6.53,2.32,7.11,7.11,0,0,1-3.63-.27,2.17,2.17,0,0,1-.86-.67,1.76,1.76,0,0,1-.3-1.14A3.27,3.27,0,0,1,53.85,19a10.66,10.66,0,0,1,2.76-2.23,18,18,0,0,1,3.14-1.48l.12,0,.1,0a18.79,18.79,0,0,0,4.19.41A40.69,40.69,0,0,0,68.43,15.44Zm0,0a28.94,28.94,0,0,1-4.25.68A18.34,18.34,0,0,1,59.81,16L60,16a15.45,15.45,0,0,0-5.43,3.64A2.33,2.33,0,0,0,54,20.83a.83.83,0,0,0,.59.83,6.43,6.43,0,0,0,3.09.23,17.4,17.4,0,0,0,3.24-.72A20.68,20.68,0,0,0,64,20a16.27,16.27,0,0,0,2.84-1.77A6.22,6.22,0,0,0,68,17,1.85,1.85,0,0,0,68.43,15.44Z"/><line x1="53" y1="13.39" x2="56" y2="14.39"/><polygon class="cls-1" points="53 13.39 56.16 13.92 55.84 14.87 53 13.39"/><line x1="53" y1="13.39" x2="56" y2="12.39"/><polygon class="cls-1" points="53 13.39 55.84 11.92 56.16 12.87 53 13.39"/></g></g></svg>